<svg width="480" height="270" viewBox="0 0 480 270" fill="none" xmlns="http://www.w3.org/2000/svg">
<rect width="480" id="bg" height="270" fill="white"/>
<path d="M57.5 119L97.5 139V183L57.5 165V119Z" fill="#315AA9"/>
<path d="M137.5 119L97.5 139V183L137.5 165V119Z" fill="#518AC8"/>
<path fill-rule="evenodd" clip-rule="evenodd" d="M137.5 119L97.5 99L57.5 119L97.5 139L137.5 119Z" fill="#76B3E1"/>
<path d="M97.5 97L117.5 107V129L97.5 120V97Z" fill="#315AA9"/>
<path d="M137.5 97L117.5 107V129L137.5 120V97Z" fill="#518AC8"/>
<path fill-rule="evenodd" clip-rule="evenodd" d="M137.5 97L117.5 87L97.5 97L117.5 107L137.5 97Z" fill="#76B3E1"/>
<path d="M37.5 151L57.5 161V183L37.5 174V151Z" fill="#35B58E"/>
<path d="M77.5 151L57.5 161V183L77.5 174V151Z" fill="#58D29F"/>
<path fill-rule="evenodd" clip-rule="evenodd" d="M77.5 151L57.5 141L37.5 151L57.5 161L77.5 151Z" fill="#66E6AB"/>
<path id="letter" d="M163.228 147.32C161.692 147.32 160.369 147.064 159.26 146.552C158.172 146.04 157.329 145.304 156.732 144.344C156.135 143.384 155.825 142.243 155.804 140.92H158.684C158.684 142.093 159.079 143.021 159.868 143.704C160.679 144.387 161.799 144.728 163.228 144.728C164.572 144.728 165.617 144.397 166.364 143.736C167.132 143.075 167.516 142.157 167.516 140.984C167.516 140.045 167.26 139.224 166.748 138.52C166.257 137.816 165.543 137.325 164.604 137.048L161.436 136.056C159.836 135.565 158.599 134.744 157.724 133.592C156.871 132.44 156.444 131.085 156.444 129.528C156.444 128.269 156.721 127.181 157.276 126.264C157.852 125.325 158.652 124.6 159.676 124.088C160.7 123.555 161.905 123.288 163.292 123.288C165.34 123.288 166.983 123.864 168.22 125.016C169.457 126.147 170.087 127.661 170.108 129.56H167.228C167.228 128.408 166.876 127.512 166.172 126.872C165.489 126.211 164.519 125.88 163.26 125.88C162.023 125.88 161.052 126.179 160.348 126.776C159.665 127.373 159.324 128.205 159.324 129.272C159.324 130.232 159.58 131.064 160.092 131.768C160.604 132.472 161.34 132.973 162.3 133.272L165.5 134.296C167.057 134.787 168.263 135.619 169.116 136.792C169.969 137.965 170.396 139.341 170.396 140.92C170.396 142.2 170.097 143.32 169.5 144.28C168.903 145.24 168.06 145.987 166.972 146.52C165.905 147.053 164.657 147.32 163.228 147.32ZM182.288 147.32C180.88 147.32 179.664 147.053 178.64 146.52C177.637 145.987 176.858 145.219 176.304 144.216C175.77 143.192 175.504 141.987 175.504 140.6V130.04C175.504 128.632 175.77 127.427 176.304 126.424C176.858 125.421 177.637 124.653 178.64 124.12C179.664 123.587 180.88 123.32 182.288 123.32C183.696 123.32 184.901 123.587 185.904 124.12C186.928 124.653 187.706 125.421 188.24 126.424C188.794 127.427 189.072 128.621 189.072 130.008V140.6C189.072 141.987 188.794 143.192 188.24 144.216C187.706 145.219 186.928 145.987 185.904 146.52C184.901 147.053 183.696 147.32 182.288 147.32ZM182.288 144.728C183.546 144.728 184.506 144.376 185.168 143.672C185.85 142.947 186.192 141.923 186.192 140.6V130.04C186.192 128.717 185.85 127.704 185.168 127C184.506 126.275 183.546 125.912 182.288 125.912C181.05 125.912 180.09 126.275 179.408 127C178.725 127.704 178.384 128.717 178.384 130.04V140.6C178.384 141.923 178.725 142.947 179.408 143.672C180.09 144.376 181.05 144.728 182.288 144.728ZM195.555 147V123.64H198.435V144.376H208.995V147H195.555ZM214.423 147V144.376H219.191V126.264H214.423V123.64H226.903V126.264H222.135V144.376H226.903V147H214.423ZM233.194 147V123.64H239.242C240.757 123.64 242.058 123.928 243.146 124.504C244.255 125.08 245.109 125.891 245.706 126.936C246.325 127.981 246.634 129.219 246.634 130.648V139.96C246.634 141.389 246.325 142.637 245.706 143.704C245.109 144.749 244.255 145.56 243.146 146.136C242.058 146.712 240.757 147 239.242 147H233.194ZM236.074 144.44H239.242C240.65 144.44 241.749 144.045 242.538 143.256C243.349 142.467 243.754 141.368 243.754 139.96V130.648C243.754 129.261 243.349 128.173 242.538 127.384C241.749 126.595 240.65 126.2 239.242 126.2H236.074V144.44ZM251.358 150.2V147.8H266.718V150.2H251.358ZM271.985 147V144.376H276.753V126.264H271.985V123.64H284.465V126.264H279.697V144.376H284.465V147H271.985ZM290.693 147V123.64H294.533L301.669 143.64C301.626 143.107 301.573 142.456 301.509 141.688C301.466 140.899 301.423 140.077 301.381 139.224C301.359 138.349 301.349 137.528 301.349 136.76V123.64H304.133V147H300.293L293.189 127C293.231 127.512 293.274 128.163 293.317 128.952C293.359 129.72 293.391 130.541 293.413 131.416C293.455 132.269 293.477 133.091 293.477 133.88V147H290.693ZM315.16 147V126.232H308.76V123.608H324.44V126.232H318.04V147H315.16ZM329.388 147V123.64H342.828V126.264H332.236V133.496H341.708V136.088H332.236V144.376H342.828V147H329.388ZM348.319 147V123.64H355.551C356.938 123.64 358.154 123.928 359.199 124.504C360.244 125.059 361.055 125.837 361.631 126.84C362.207 127.843 362.495 129.016 362.495 130.36C362.495 131.939 362.079 133.293 361.247 134.424C360.436 135.555 359.327 136.333 357.919 136.76L362.815 147H359.423L354.943 137.08H351.199V147H348.319ZM351.199 134.488H355.551C356.746 134.488 357.706 134.115 358.431 133.368C359.156 132.6 359.519 131.597 359.519 130.36C359.519 129.101 359.156 128.099 358.431 127.352C357.706 126.605 356.746 126.232 355.551 126.232H351.199V134.488ZM367.603 147V123.608H381.363V126.232H370.419V134.008H380.531V136.632H370.483V147H367.603ZM385.35 147L391.43 123.64H395.302L401.35 147H398.438L396.902 140.792H389.83L388.294 147H385.35ZM390.406 138.36H396.294L394.502 131.16C394.161 129.795 393.894 128.653 393.702 127.736C393.51 126.819 393.393 126.221 393.35 125.944C393.307 126.221 393.19 126.819 392.998 127.736C392.806 128.653 392.539 129.784 392.198 131.128L390.406 138.36ZM412.666 147.32C411.258 147.32 410.031 147.053 408.986 146.52C407.962 145.987 407.162 145.219 406.586 144.216C406.031 143.192 405.754 141.987 405.754 140.6V130.04C405.754 128.632 406.031 127.427 406.586 126.424C407.162 125.421 407.962 124.653 408.986 124.12C410.031 123.587 411.258 123.32 412.666 123.32C414.074 123.32 415.29 123.597 416.314 124.152C417.338 124.685 418.127 125.453 418.682 126.456C419.236 127.459 419.514 128.653 419.514 130.04H416.634C416.634 128.717 416.282 127.704 415.578 127C414.895 126.275 413.924 125.912 412.666 125.912C411.407 125.912 410.415 126.264 409.69 126.968C408.986 127.672 408.634 128.685 408.634 130.008V140.6C408.634 141.923 408.986 142.947 409.69 143.672C410.415 144.376 411.407 144.728 412.666 144.728C413.924 144.728 414.895 144.376 415.578 143.672C416.282 142.947 416.634 141.923 416.634 140.6H419.514C419.514 141.965 419.236 143.16 418.682 144.184C418.127 145.187 417.338 145.965 416.314 146.52C415.29 147.053 414.074 147.32 412.666 147.32ZM425.325 147V123.64H438.765V126.264H428.173V133.496H437.645V136.088H428.173V144.376H438.765V147H425.325Z" fill="black"/>
<style>
  @media(prefers-color-scheme: dark) {#bg {fill: #1A202C;}#letter {fill: #fff;}}
</style>
</svg>
